<svg id="レイヤー_1" data-name="レイヤー 1" xmlns="http://www.w3.org/2000/svg" viewBox="0 0 500 500"><defs><style>.cls-1{fill:#caa846;}.cls-2,.cls-3{fill:#eee;}.cls-3{stroke:#eee;stroke-miterlimit:10;}</style></defs><rect class="cls-1" width="500" height="500"/><path class="cls-2" d="M145,350a14.87,14.87,0,0,1-4.56-10.9V150.14a15.57,15.57,0,0,1,15.45-15.45H348a14.89,14.89,0,0,1,10.89,4.56c.31.31.6.63.88.95L383,117c-.36-.38-.71-.77-1.08-1.14A46.2,46.2,0,0,0,348,101.82H155.93q-20.2,0-34.06,14.06T108,150.14V339.07a46.46,46.46,0,0,0,13.87,33.87c.87.88,1.77,1.71,2.68,2.51l23.26-23.26A16.35,16.35,0,0,1,145,350Z"/><path class="cls-2" d="M214,281.84A14.85,14.85,0,0,1,209.4,271V221a15.57,15.57,0,0,1,15.45-15.45h54.26a14.9,14.9,0,0,1,10.82,4.48l14.65-14.65a46.17,46.17,0,0,0-33.79-14H233.17q-20.21,0-34.07,14.06a46.52,46.52,0,0,0-13.86,33.87v33.27q0,20.21,13.86,34.26c.67.68,1.36,1.33,2.05,2l15.09-15.09A16.94,16.94,0,0,1,214,281.84Z"/><path class="cls-2" d="M304.66,195.49a46.2,46.2,0,0,1,14.06,33.87v55a2.07,2.07,0,0,0,2.08,2.07h40.6a2.07,2.07,0,0,0,2.08-2.07V150.14a14.79,14.79,0,0,0-3.68-9.94l-55.22,55.22Z"/><path class="cls-2" d="M383,117a46.54,46.54,0,0,1,13,33.12V308.88a2.08,2.08,0,0,1-2.08,2.07H233.17q-18.73,0-32-12.1l-53.34,53.34a14.65,14.65,0,0,0,8.12,2.33h238A2.08,2.08,0,0,1,396,356.6v28.32a2.08,2.08,0,0,1-2.08,2.08H155.93q-18.3,0-31.38-11.55L0,500H500V0Z"/><path class="cls-2" d="M224.85,286.39h67.64a2.07,2.07,0,0,0,2.07-2.07V221A14.89,14.89,0,0,0,290,210.15a.6.6,0,0,1-.08-.08l-73.69,73.69A14.78,14.78,0,0,0,224.85,286.39Z"/><path class="cls-3" d="M141.75-42.75"/><path class="cls-3" d="M-65.25,164.25"/><path class="cls-3" d="M157.5-31.5"/><path class="cls-3" d="M-49.5,175.5"/><path class="cls-3" d="M270-90"/><path class="cls-3" d="M-189,369"/><path class="cls-3" d="M126-54"/><path class="cls-3" d="M-81,153"/></svg>