<svg id="レイヤー_1" data-name="レイヤー 1" xmlns="http://www.w3.org/2000/svg" viewBox="0 0 1200 630"><defs><style>.cls-1,.cls-6,.cls-7{fill:#fff;}.cls-2{fill:#71717a;}.cls-3{fill:#f59e0b;}.cls-4{fill:#22c55e;}.cls-5{fill:#d946ef;}.cls-6,.cls-7{font-size:41.94px;font-family:NotoSansCJKjp-Medium-90ms-RKSJ-H, Noto Sans CJK JP;}.cls-6{letter-spacing:0.71em;}.cls-7{letter-spacing:1.09em;}.cls-8{letter-spacing:0.9em;}.cls-9{letter-spacing:0.69em;}.cls-10{letter-spacing:0.73em;}.cls-11{letter-spacing:0.71em;}</style></defs><rect class="cls-1" width="1200" height="630"/><rect class="cls-2" x="415.01" y="98.13" width="65.34" height="67.93"/><rect class="cls-2" x="486.3" y="98.13" width="65.34" height="67.93"/><rect class="cls-2" x="557.58" y="98.13" width="65.34" height="67.93"/><rect class="cls-2" x="628.87" y="98.13" width="65.34" height="67.93"/><rect class="cls-3" x="700.15" y="98.13" width="65.34" height="67.93"/><rect class="cls-2" x="415.01" y="172.92" width="65.34" height="67.93"/><rect class="cls-2" x="486.3" y="172.92" width="65.34" height="67.93"/><rect class="cls-2" x="557.58" y="172.92" width="65.34" height="67.93"/><rect class="cls-4" x="628.87" y="172.92" width="65.34" height="67.93"/><rect class="cls-2" x="700.15" y="172.92" width="65.34" height="67.93"/><rect class="cls-5" x="415.01" y="247.71" width="65.34" height="67.93"/><rect class="cls-2" x="486.3" y="247.71" width="65.34" height="67.93"/><rect class="cls-2" x="557.58" y="247.71" width="65.34" height="67.93"/><rect class="cls-5" x="628.87" y="247.71" width="65.34" height="67.93"/><rect class="cls-2" x="700.15" y="247.71" width="65.34" height="67.93"/><rect class="cls-3" x="415.01" y="322.49" width="65.34" height="67.93"/><rect class="cls-5" x="486.3" y="322.49" width="65.34" height="67.93"/><rect class="cls-2" x="557.58" y="322.49" width="65.34" height="67.93"/><rect class="cls-4" x="628.87" y="322.49" width="65.34" height="67.93"/><rect class="cls-2" x="700.15" y="322.49" width="65.34" height="67.93"/><rect class="cls-2" x="415.01" y="397.28" width="65.34" height="67.93"/><rect class="cls-4" x="486.3" y="397.28" width="65.34" height="67.93"/><rect class="cls-2" x="557.58" y="397.28" width="65.34" height="67.93"/><rect class="cls-4" x="628.87" y="397.28" width="65.34" height="67.93"/><rect class="cls-4" x="700.15" y="397.28" width="65.34" height="67.93"/><rect class="cls-4" x="415.01" y="472.07" width="65.34" height="67.93"/><rect class="cls-4" x="486.3" y="472.07" width="65.34" height="67.93"/><rect class="cls-4" x="557.58" y="472.07" width="65.34" height="67.93"/><rect class="cls-4" x="628.87" y="472.07" width="65.34" height="67.93"/><rect class="cls-4" x="700.15" y="472.07" width="65.34" height="67.93"/><text class="cls-6" transform="translate(426.4 521.78)">ヨドヤバシ</text><text class="cls-6" transform="translate(426.4 446.88)">ミドリバシ</text><text class="cls-6" transform="translate(426.4 371.99)">ショウバラ</text><text class="cls-6" transform="translate(426.4 297.1)">トウキョウ</text><text class="cls-6" transform="translate(426.4 222.2)">アキハバラ</text><text class="cls-7" transform="translate(434.63 147.31)">J<tspan class="cls-8" x="68.78" y="0">R</tspan><tspan class="cls-9" x="134" y="0">ナ</tspan><tspan class="cls-10" x="204.88" y="0">ン</tspan><tspan class="cls-11" x="277.44" y="0">バ</tspan></text></svg>